<?xml version="1.0" encoding="UTF-8"?>
<svg id="Calque_2" data-name="Calque 2" xmlns="http://www.w3.org/2000/svg" viewBox="0 0 257.97 257.97">
  <defs>
    <style>
      .cls-1 {
        fill: #0e1621;
      }
    </style>
  </defs>
  <g id="Calque_1-2" data-name="Calque 1">
    <path class="cls-1" d="m128.99,0C57.75,0,0,57.75,0,128.99s57.75,128.98,128.99,128.98,128.98-57.75,128.98-128.98S200.23,0,128.99,0Zm72.3,206.1h-37.74v-33.09h-2.58c-1.38,4.31-3.15,8.27-5.3,11.89-2.16,3.62-4.61,6.9-7.37,9.83-2.93,3.1-6.2,5.73-9.82,7.88-3.62,2.16-7.54,3.79-11.76,4.91-4.23,1.12-8.66,1.68-13.32,1.68-15.5,0-27.96-4.91-37.35-14.73-9.39-9.83-14.09-23.53-14.09-41.1V52.3h38.52v89.18c0,10.17,2.07,17.96,6.2,23.39,4.14,5.43,11.29,8.14,21.46,8.14,5.85,0,11.33-1.07,16.41-3.23,5.08-2.15,9.39-6.16,12.93-12.02,3.53-5.86,5.3-13.96,5.3-24.3V52.3h38.51v153.8Z"/>
  </g>
</svg>