<?xml version="1.0" encoding="UTF-8"?>
<svg id="Calque_2" data-name="Calque 2" xmlns="http://www.w3.org/2000/svg" viewBox="0 0 942.8 258.05">
  <defs>
    <style>
      .cls-1 {
        fill: #e22d2d;
      }
    </style>
  </defs>
  <g id="Calque_1-2" data-name="Calque 1">
    <g>
      <g>
        <path class="cls-1" d="m298.39,248.36c-11.37-6.46-17.06-15.3-17.06-26.5,0-5.52,1.81-10.34,5.43-14.48,3.62-4.14,8.18-7.06,13.7-8.79v-2.33c-7.07-3.1-12.37-7.15-15.9-12.15-3.53-5-5.3-10.34-5.3-16.03,0-3.1.47-5.99,1.42-8.66.95-2.67,2.2-5.12,3.75-7.37,1.89-2.58,4.18-4.87,6.85-6.85,2.67-1.98,5.64-3.75,8.92-5.3v-2.33c-1.38-.86-2.71-1.94-4.01-3.23s-2.54-2.63-3.75-4.01c-1.72-2.24-3.23-4.74-4.52-7.5-1.29-2.75-2.29-5.73-2.97-8.92-.69-3.19-1.03-6.5-1.03-9.95,0-12.06,2.71-22.19,8.14-30.37,5.43-8.18,12.49-14.26,21.2-18.22,8.7-3.96,18.13-5.95,28.3-5.95,7.24,0,13.7,1.42,19.39,4.27,5.69,2.84,9.73,6.59,12.15,11.24h2.33v-31.79h32.05v69.28c0,10.34-2.63,19.6-7.88,27.79-5.26,8.19-12.63,14.56-22.1,19.13-9.48,4.57-20.25,6.85-32.31,6.85-7.41,0-13.53-.6-18.35-1.81-3.97-.69-8.19-2.07-12.67-4.14-.86,1.38-1.51,2.8-1.94,4.27-.43,1.47-.65,3.23-.65,5.3,0,3.79,1.16,6.72,3.49,8.79,2.33,2.07,6.33,3.1,12.02,3.1h44.72c17.75,0,31.06,3.28,39.94,9.82,8.87,6.55,13.31,16.29,13.31,29.21,0,9.82-2.67,18.26-8.01,25.33-5.34,7.06-13.57,12.49-24.69,16.29-11.12,3.79-25.12,5.69-42,5.69-23.26,0-40.58-3.23-51.96-9.69Zm88.15-35.03c0-4.14-1.68-6.94-5.04-8.4s-8.75-2.2-16.16-2.2h-44.98c-2.58,3.1-3.88,6.37-3.88,9.82s1.33,6.24,4.01,8.4c2.67,2.15,6.63,3.7,11.89,4.65,5.25.95,11.85,1.42,19.77,1.42,22.92,0,34.38-4.57,34.38-13.7Zm-26.88-89.18c4.14-1.72,7.41-4.35,9.82-7.88,2.41-3.53,3.62-7.97,3.62-13.31,0-7.92-2.58-13.91-7.75-17.96-5.17-4.05-11.72-6.07-19.65-6.07-5,0-9.56.86-13.7,2.58-4.14,1.72-7.46,4.39-9.95,8.01-2.5,3.62-3.75,8.1-3.75,13.44,0,7.75,2.63,13.66,7.88,17.71,5.25,4.05,11.76,6.07,19.52,6.07,5.17,0,9.82-.86,13.96-2.58Z"/>
        <path class="cls-1" d="m437.98,52.55h37.74v31.79h2.58c1.38-4.14,3.01-8.01,4.91-11.63,1.89-3.62,4.05-6.89,6.46-9.82,2.24-2.75,4.69-5.12,7.37-7.11,2.67-1.98,5.6-3.53,8.79-4.65,3.19-1.12,6.59-1.68,10.21-1.68,6.89,0,13.01.86,18.35,2.58v41.36c-4.83-2.58-9.35-4.26-13.57-5.04-4.22-.78-8.83-1.16-13.83-1.16-9.65,0-17.15,3.49-22.49,10.47-5.34,6.98-8.01,16.59-8.01,28.82v79.87h-38.52V52.55Z"/>
        <path class="cls-1" d="m552.74,197.56c-8.45-7.92-12.67-18.78-12.67-32.57,0-14.99,4.95-26.32,14.86-33.99,9.91-7.67,23.65-11.5,41.23-11.5h38.26v-11.37c0-8.1-2.63-13.87-7.88-17.32-5.26-3.44-12.62-5.17-22.1-5.17-6.2,0-13.79.86-22.75,2.58-10,2.24-19.56,5.08-28.69,8.53v-39.03c19.13-5.51,37.48-8.27,55.06-8.27,13.44,0,24.98,2.07,34.64,6.2,9.65,4.14,17.1,10.56,22.36,19.26,5.25,8.7,7.88,19.86,7.88,33.47v97.97h-37.48v-26.11h-2.07c-5.86,10.86-12.88,18.44-21.07,22.75-8.19,4.31-17.28,6.46-27.27,6.46-13.1,0-23.87-3.96-32.31-11.89Zm62.04-19.39c4.82-2.07,9.13-5.73,12.92-10.99,3.79-5.25,6.03-12.36,6.72-21.33h-31.28c-5.69,0-10.25.39-13.7,1.16-3.45.78-6.12,2.42-8.01,4.91-1.9,2.5-2.84,6.16-2.84,10.99,0,5.86,1.94,10.38,5.82,13.57,3.88,3.19,9.35,4.78,16.41,4.78,4.48,0,9.13-1.03,13.96-3.1Z"/>
        <path class="cls-1" d="m704.73,52.55h37.74v33.09h2.58c1.2-4.14,2.75-7.92,4.65-11.37,1.89-3.45,4.05-6.55,6.46-9.31,3.1-3.62,6.59-6.55,10.47-8.79,3.88-2.24,7.92-3.92,12.15-5.04,4.22-1.12,8.66-1.68,13.31-1.68,14.48,0,26.19,4.14,35.15,12.41,2.07,1.72,4.01,3.75,5.82,6.07s3.4,4.78,4.78,7.37c1.38,2.93,2.67,6.38,3.88,10.34h3.1c1.2-3.96,2.75-7.63,4.65-10.99,1.89-3.36,3.96-6.42,6.2-9.18,4.65-5.34,10.08-9.35,16.29-12.02,6.2-2.67,12.83-4.01,19.9-4.01,15.16,0,27.44,4.91,36.83,14.73,9.39,9.82,14.09,23.52,14.09,41.1v101.07h-38.52v-89.18c0-10.17-2.07-17.96-6.2-23.39-4.14-5.43-11.12-8.14-20.94-8.14-9.31,0-17.32,2.84-24.04,8.53-6.72,5.69-10.08,16.03-10.08,31.02v81.17h-38.52v-89.18c0-10.17-2.07-17.96-6.2-23.39-4.14-5.43-11.12-8.14-20.94-8.14-5.69,0-11.07,1.08-16.16,3.23-5.08,2.16-9.35,6.16-12.79,12.02-3.45,5.86-5.17,13.96-5.17,24.3v81.17h-38.52V52.55Z"/>
      </g>
      <path class="cls-1" d="m128.99,0C57.75,0,0,57.75,0,128.99s57.75,128.98,128.99,128.98,128.98-57.75,128.98-128.98S200.22,0,128.99,0Zm72.3,206.1h-37.74v-33.09h-2.59c-1.38,4.31-3.14,8.27-5.29,11.89-2.16,3.62-4.62,6.9-7.37,9.82-2.93,3.11-6.2,5.74-9.82,7.89-3.62,2.16-7.54,3.79-11.77,4.91-4.22,1.12-8.65,1.68-13.31,1.68-15.51,0-27.96-4.91-37.35-14.73-9.39-9.83-14.09-23.53-14.09-41.1V52.3h38.52v89.18c0,10.17,2.07,17.96,6.2,23.39,4.14,5.43,11.29,8.14,21.46,8.14,5.85,0,11.33-1.07,16.41-3.23,5.08-2.15,9.39-6.16,12.93-12.02,3.53-5.86,5.29-13.96,5.29-24.3V52.3h38.52v153.8Z"/>
    </g>
  </g>
</svg>